<svg xmlns="http://www.w3.org/2000/svg" xmlns:xlink="http://www.w3.org/1999/xlink" width="375" height="817.578" viewBox="0 0 375 817.578">
  <defs>
    <linearGradient id="linear-gradient" x1="0.5" x2="0.5" y2="1" gradientUnits="objectBoundingBox">
      <stop offset="0" stop-color="#91d512"/>
      <stop offset="1" stop-color="#26330e"/>
    </linearGradient>
    <clipPath id="clip-path">
      <rect id="Rectangle_6899" data-name="Rectangle 6899" width="375" height="812" transform="translate(-1054 1359)" fill="#fff"/>
    </clipPath>
  </defs>
  <g id="Group_37785" data-name="Group 37785" transform="translate(1068 -1361.422)">
    <g id="Group_37784" data-name="Group 37784" transform="translate(-1068 1367)">
      <g id="Group_37783" data-name="Group 37783">
        <rect id="Rectangle_6904" data-name="Rectangle 6904" width="375" height="812" fill="#fff"/>
        <g id="Group_23" data-name="Group 23" transform="translate(-1644.518 -1053.952)">
          <path id="Icon_ionic-ios-leaf" data-name="Icon ionic-ios-leaf" d="M31.915,26.627C28.273,26.065,28,25.8,28,25.8c1.1-5.2-1.575-10.624-5.365-13.753-5.048-4.162-12.72-1.139-18.7-7.467-1.392-1.477-.584,16.559,6.9,23.393a13.152,13.152,0,0,0,13.676,2.644,7.829,7.829,0,0,0,2.721-2.384,20.634,20.634,0,0,0,4.359,1C32.618,29.362,33.138,26.817,31.915,26.627Zm-6.455.52c-5.463-1.638-10.216-5.7-13.3-8.873a.287.287,0,0,1,.387-.422,42.759,42.759,0,0,0,13.591,7.587A2.622,2.622,0,0,1,25.46,27.148Z" transform="translate(1683.124 1221.402)" fill="url(#linear-gradient)"/>
        </g>
        <g id="Group_25" data-name="Group 25" transform="translate(-1415.75 -832.883)">
          <path id="Icon_ionic-ios-leaf-2" data-name="Icon ionic-ios-leaf" d="M31.915,26.627C28.273,26.065,28,25.8,28,25.8c1.1-5.2-1.575-10.624-5.365-13.753-5.048-4.162-12.72-1.139-18.7-7.467-1.392-1.477-.584,16.559,6.9,23.393a13.152,13.152,0,0,0,13.676,2.644,7.829,7.829,0,0,0,2.721-2.384,20.634,20.634,0,0,0,4.359,1C32.618,29.362,33.138,26.817,31.915,26.627Zm-6.455.52c-5.463-1.638-10.216-5.7-13.3-8.873a.287.287,0,0,1,.387-.422,42.759,42.759,0,0,0,13.591,7.587A2.622,2.622,0,0,1,25.46,27.148Z" transform="translate(1683.124 1221.402)" fill="url(#linear-gradient)"/>
        </g>
        <g id="Group_30" data-name="Group 30" transform="translate(-1401.125 -707.883)">
          <path id="Icon_ionic-ios-leaf-3" data-name="Icon ionic-ios-leaf" d="M31.915,26.627C28.273,26.065,28,25.8,28,25.8c1.1-5.2-1.575-10.624-5.365-13.753-5.048-4.162-12.72-1.139-18.7-7.467-1.392-1.477-.584,16.559,6.9,23.393a13.152,13.152,0,0,0,13.676,2.644,7.829,7.829,0,0,0,2.721-2.384,20.634,20.634,0,0,0,4.359,1C32.618,29.362,33.138,26.817,31.915,26.627Zm-6.455.52c-5.463-1.638-10.216-5.7-13.3-8.873a.287.287,0,0,1,.387-.422,42.759,42.759,0,0,0,13.591,7.587A2.622,2.622,0,0,1,25.46,27.148Z" transform="translate(1683.124 1221.402)" fill="url(#linear-gradient)"/>
        </g>
        <g id="Group_27" data-name="Group 27" transform="matrix(-0.391, 0.921, -0.921, -0.391, 1847.538, -694.359)">
          <path id="Icon_ionic-ios-leaf-4" data-name="Icon ionic-ios-leaf" d="M31.915,26.627C28.273,26.065,28,25.8,28,25.8c1.1-5.2-1.575-10.624-5.365-13.753-5.048-4.162-12.72-1.139-18.7-7.467-1.392-1.477-.584,16.559,6.9,23.393a13.152,13.152,0,0,0,13.676,2.644,7.829,7.829,0,0,0,2.721-2.384,20.634,20.634,0,0,0,4.359,1C32.618,29.362,33.138,26.817,31.915,26.627Zm-6.455.52c-5.463-1.638-10.216-5.7-13.3-8.873a.287.287,0,0,1,.387-.422,42.759,42.759,0,0,0,13.591,7.587A2.622,2.622,0,0,1,25.46,27.148Z" transform="translate(1683.124 1221.402)" fill="url(#linear-gradient)"/>
        </g>
        <g id="Group_24" data-name="Group 24" transform="translate(-1533.125 -1195.917)">
          <path id="Icon_ionic-ios-leaf-5" data-name="Icon ionic-ios-leaf" d="M31.915,26.627C28.273,26.065,28,25.8,28,25.8c1.1-5.2-1.575-10.624-5.365-13.753-5.048-4.162-12.72-1.139-18.7-7.467-1.392-1.477-.584,16.559,6.9,23.393a13.152,13.152,0,0,0,13.676,2.644,7.829,7.829,0,0,0,2.721-2.384,20.634,20.634,0,0,0,4.359,1C32.618,29.362,33.138,26.817,31.915,26.627Zm-6.455.52c-5.463-1.638-10.216-5.7-13.3-8.873a.287.287,0,0,1,.387-.422,42.759,42.759,0,0,0,13.591,7.587A2.622,2.622,0,0,1,25.46,27.148Z" transform="translate(1683.124 1221.402)" fill="url(#linear-gradient)"/>
        </g>
        <g id="Group_32" data-name="Group 32" transform="translate(-1668.125 -1151.917)">
          <path id="Icon_ionic-ios-leaf-6" data-name="Icon ionic-ios-leaf" d="M31.915,26.627C28.273,26.065,28,25.8,28,25.8c1.1-5.2-1.575-10.624-5.365-13.753-5.048-4.162-12.72-1.139-18.7-7.467-1.392-1.477-.584,16.559,6.9,23.393a13.152,13.152,0,0,0,13.676,2.644,7.829,7.829,0,0,0,2.721-2.384,20.634,20.634,0,0,0,4.359,1C32.618,29.362,33.138,26.817,31.915,26.627Zm-6.455.52c-5.463-1.638-10.216-5.7-13.3-8.873a.287.287,0,0,1,.387-.422,42.759,42.759,0,0,0,13.591,7.587A2.622,2.622,0,0,1,25.46,27.148Z" transform="translate(1683.124 1221.402)" fill="url(#linear-gradient)"/>
        </g>
        <g id="Group_29" data-name="Group 29" transform="translate(-1349.125 -1168.918)">
          <path id="Icon_ionic-ios-leaf-7" data-name="Icon ionic-ios-leaf" d="M31.915,26.627C28.273,26.065,28,25.8,28,25.8c1.1-5.2-1.575-10.624-5.365-13.753-5.048-4.162-12.72-1.139-18.7-7.467-1.392-1.477-.584,16.559,6.9,23.393a13.152,13.152,0,0,0,13.676,2.644,7.829,7.829,0,0,0,2.721-2.384,20.634,20.634,0,0,0,4.359,1C32.618,29.362,33.138,26.817,31.915,26.627Zm-6.455.52c-5.463-1.638-10.216-5.7-13.3-8.873a.287.287,0,0,1,.387-.422,42.759,42.759,0,0,0,13.591,7.587A2.622,2.622,0,0,1,25.46,27.148Z" transform="translate(1683.124 1221.402)" fill="url(#linear-gradient)"/>
        </g>
        <g id="Group_26" data-name="Group 26" transform="matrix(-0.391, 0.921, -0.921, -0.391, 2011.197, -823.215)">
          <path id="Icon_ionic-ios-leaf-8" data-name="Icon ionic-ios-leaf" d="M31.915,26.627C28.273,26.065,28,25.8,28,25.8c1.1-5.2-1.575-10.624-5.365-13.753-5.048-4.162-12.72-1.139-18.7-7.467-1.392-1.477-.584,16.559,6.9,23.393a13.152,13.152,0,0,0,13.676,2.644,7.829,7.829,0,0,0,2.721-2.384,20.634,20.634,0,0,0,4.359,1C32.618,29.362,33.138,26.817,31.915,26.627Zm-6.455.52c-5.463-1.638-10.216-5.7-13.3-8.873a.287.287,0,0,1,.387-.422,42.759,42.759,0,0,0,13.591,7.587A2.622,2.622,0,0,1,25.46,27.148Z" transform="translate(1683.124 1221.402)" fill="url(#linear-gradient)"/>
        </g>
        <g id="Group_31" data-name="Group 31" transform="matrix(-0.391, 0.921, -0.921, -0.391, 1913.915, -568.841)">
          <path id="Icon_ionic-ios-leaf-9" data-name="Icon ionic-ios-leaf" d="M31.915,26.627C28.273,26.065,28,25.8,28,25.8c1.1-5.2-1.575-10.624-5.365-13.753-5.048-4.162-12.72-1.139-18.7-7.467-1.392-1.477-.584,16.559,6.9,23.393a13.152,13.152,0,0,0,13.676,2.644,7.829,7.829,0,0,0,2.721-2.384,20.634,20.634,0,0,0,4.359,1C32.618,29.362,33.138,26.817,31.915,26.627Zm-6.455.52c-5.463-1.638-10.216-5.7-13.3-8.873a.287.287,0,0,1,.387-.422,42.759,42.759,0,0,0,13.591,7.587A2.622,2.622,0,0,1,25.46,27.148Z" transform="translate(1683.124 1221.402)" fill="url(#linear-gradient)"/>
        </g>
      </g>
      <g id="Group_15" data-name="Group 15" transform="translate(-6.5 -10)">
        <path id="Path_4" data-name="Path 4" d="M167.347,450.127c2.134-3.267,3.91-6.643,6.173-9.273a37.139,37.139,0,0,1,8.256-7.512c3.509-2.151,6.961-.22,8.773,3.784a11.57,11.57,0,0,1-1.774,12.62,22.774,22.774,0,0,1-14.048,7.613c-1.265.22-2.542.311-3.737.452-4.259,9.248-3.31,12.833,8.282,31.408-1.916,3.06-3.9,1.813-5.82.136-6.422-5.623-10.63-19.195-9.092-29.176.156-1.009.348-2.011.558-3.215-.95-.736-1.791-1.317-2.578-2.008-5.677-4.977-8.272-13.056-6.18-21.675a61.86,61.86,0,0,1,5.487-14.089,60.882,60.882,0,0,1,14.9-18c6.892-5.856,14-11.267,21-16.881,1.049-.841,2.068-1.749,3.413-2.891a62.129,62.129,0,0,1-6.894-3.976c-.773-.576-1.694-2.877-1.427-3.427.572-1.18,1.856-1.775,2.888-2.511.23-.164.623.068.94.131,5.05,1.012,10.09,2.127,15.152,3.011,4.471.78,5.282,1.933,4.707,7.836a42.963,42.963,0,0,1-6.084,17.887c-1.006,1.709-2.248,3.231-4.271,1.165-.312-6.083,3.656-10.463,4.529-17.069a40.81,40.81,0,0,0-3.784,2.273c-8.881,6.84-17.917,13.365-26.539,20.748a87.052,87.052,0,0,0-12.807,14.432,40.155,40.155,0,0,0-5.6,11.8c-2.189,7.148-.162,12.685,5.578,16.4m7.055-1.215.684,1.427A15.421,15.421,0,0,0,183.9,446.5c2.5-2.115,3.347-4.288,2.254-5.94-1.556-2.353-3.3-1.057-4.657.315-2.467,2.5-4.737,5.336-7.09,8.033" transform="translate(-105.966 37.913)" fill="#c8c6c6"/>
        <path id="Path_40" data-name="Path 40" d="M167.347,450.127c2.134-3.267,3.91-6.643,6.173-9.273a37.139,37.139,0,0,1,8.256-7.512c3.509-2.151,6.961-.22,8.773,3.784a11.57,11.57,0,0,1-1.774,12.62,22.774,22.774,0,0,1-14.048,7.613c-1.265.22-2.542.311-3.737.452-4.259,9.248-3.31,12.833,8.282,31.408-1.916,3.06-3.9,1.813-5.82.136-6.422-5.623-10.63-19.195-9.092-29.176.156-1.009.348-2.011.558-3.215-.95-.736-1.791-1.317-2.578-2.008-5.677-4.977-8.272-13.056-6.18-21.675a61.86,61.86,0,0,1,5.487-14.089,60.882,60.882,0,0,1,14.9-18c6.892-5.856,14-11.267,21-16.881,1.049-.841,2.068-1.749,3.413-2.891a62.129,62.129,0,0,1-6.894-3.976c-.773-.576-1.694-2.877-1.427-3.427.572-1.18,1.856-1.775,2.888-2.511.23-.164.623.068.94.131,5.05,1.012,10.09,2.127,15.152,3.011,4.471.78,5.282,1.933,4.707,7.836a42.963,42.963,0,0,1-6.084,17.887c-1.006,1.709-2.248,3.231-4.271,1.165-.312-6.083,3.656-10.463,4.529-17.069a40.81,40.81,0,0,0-3.784,2.273c-8.881,6.84-17.917,13.365-26.539,20.748a87.052,87.052,0,0,0-12.807,14.432,40.155,40.155,0,0,0-5.6,11.8c-2.189,7.148-.162,12.685,5.578,16.4m7.055-1.215.684,1.427A15.421,15.421,0,0,0,183.9,446.5c2.5-2.115,3.347-4.288,2.254-5.94-1.556-2.353-3.3-1.057-4.657.315-2.467,2.5-4.737,5.336-7.09,8.033" transform="translate(-94.966 25.549)" fill="#c8c6c6"/>
      </g>
      <g id="Group_22" data-name="Group 22" transform="matrix(0.951, 0.309, -0.309, 0.951, 381.259, -376.671)">
        <path id="Path_4-2" data-name="Path 4" d="M162.628,418.947a54.312,54.312,0,0,1,3.727-5.6,22.419,22.419,0,0,1,4.984-4.535c2.118-1.3,4.2-.133,5.3,2.284a6.984,6.984,0,0,1-1.071,7.619,13.749,13.749,0,0,1-8.481,4.6c-.764.133-1.535.188-2.256.273-2.571,5.583-2,7.747,5,18.961-1.157,1.847-2.357,1.095-3.514.082-3.877-3.394-6.417-11.588-5.489-17.613.094-.609.21-1.214.337-1.941-.573-.444-1.081-.8-1.556-1.212a13.006,13.006,0,0,1-3.731-13.085,37.345,37.345,0,0,1,3.312-8.506,36.754,36.754,0,0,1,9-10.866c4.161-3.535,8.449-6.8,12.679-10.191.633-.508,1.248-1.056,2.06-1.745a37.508,37.508,0,0,1-4.162-2.4A3.007,3.007,0,0,1,177.9,373c.345-.712,1.12-1.071,1.743-1.516.139-.1.376.041.567.079,3.049.611,6.091,1.284,9.147,1.818,2.7.471,3.189,1.167,2.842,4.73a25.936,25.936,0,0,1-3.673,10.8c-.607,1.032-1.357,1.95-2.578.7-.188-3.672,2.207-6.316,2.734-10.3a24.643,24.643,0,0,0-2.284,1.372c-5.361,4.129-10.816,8.069-16.021,12.525a52.551,52.551,0,0,0-7.731,8.712,24.241,24.241,0,0,0-3.383,7.125c-1.321,4.315-.1,7.658,3.367,9.9m4.259-.733.413.861a9.31,9.31,0,0,0,5.318-2.315c1.507-1.277,2.021-2.589,1.361-3.586-.939-1.421-1.992-.638-2.811.19-1.489,1.507-2.86,3.221-4.28,4.85" transform="translate(-105.966 33.013)" fill="#c8c6c6"/>
        <path id="Path_40-2" data-name="Path 40" d="M162.628,418.947a54.312,54.312,0,0,1,3.727-5.6,22.419,22.419,0,0,1,4.984-4.535c2.118-1.3,4.2-.133,5.3,2.284a6.984,6.984,0,0,1-1.071,7.619,13.749,13.749,0,0,1-8.481,4.6c-.764.133-1.535.188-2.256.273-2.571,5.583-2,7.747,5,18.961-1.157,1.847-2.357,1.095-3.514.082-3.877-3.394-6.417-11.588-5.489-17.613.094-.609.21-1.214.337-1.941-.573-.444-1.081-.8-1.556-1.212a13.006,13.006,0,0,1-3.731-13.085,37.345,37.345,0,0,1,3.312-8.506,36.754,36.754,0,0,1,9-10.866c4.161-3.535,8.449-6.8,12.679-10.191.633-.508,1.248-1.056,2.06-1.745a37.508,37.508,0,0,1-4.162-2.4A3.007,3.007,0,0,1,177.9,373c.345-.712,1.12-1.071,1.743-1.516.139-.1.376.041.567.079,3.049.611,6.091,1.284,9.147,1.818,2.7.471,3.189,1.167,2.842,4.73a25.936,25.936,0,0,1-3.673,10.8c-.607,1.032-1.357,1.95-2.578.7-.188-3.672,2.207-6.316,2.734-10.3a24.643,24.643,0,0,0-2.284,1.372c-5.361,4.129-10.816,8.069-16.021,12.525a52.551,52.551,0,0,0-7.731,8.712,24.241,24.241,0,0,0-3.383,7.125c-1.321,4.315-.1,7.658,3.367,9.9m4.259-.733.413.861a9.31,9.31,0,0,0,5.318-2.315c1.507-1.277,2.021-2.589,1.361-3.586-.939-1.421-1.992-.638-2.811.19-1.489,1.507-2.86,3.221-4.28,4.85" transform="translate(-99.326 25.549)" fill="#c8c6c6"/>
      </g>
      <circle id="Ellipse_14" data-name="Ellipse 14" cx="7.5" cy="7.5" r="7.5" transform="translate(217 425)" fill="#da6b6e"/>
      <circle id="Ellipse_17" data-name="Ellipse 17" cx="7.5" cy="7.5" r="7.5" transform="translate(257 274)" fill="#da6b6e"/>
      <circle id="Ellipse_18" data-name="Ellipse 18" cx="7.5" cy="7.5" r="7.5" transform="translate(202 30)" fill="#da6b6e"/>
      <circle id="Ellipse_16" data-name="Ellipse 16" cx="7.5" cy="7.5" r="7.5" transform="translate(328 590)" fill="#da6b6e"/>
      <circle id="Ellipse_15" data-name="Ellipse 15" cx="7.5" cy="7.5" r="7.5" transform="translate(151 453)" fill="#da6b6e"/>
    </g>
    <g id="Mask_Group_20" data-name="Mask Group 20" transform="translate(-14 8)" clip-path="url(#clip-path)">
      <g id="Group_37782" data-name="Group 37782" transform="translate(-0.002)">
        <path id="Path_90" data-name="Path 90" d="M1499,1374.138s158.643,30.767,171.139,132.35-68.291,263.72-6.725,366.534,232.8,74.905,232.8,74.905" transform="translate(733.106 3506.015) rotate(-174)" fill="none" stroke="#1e0203" stroke-width="1" stroke-dasharray="5" opacity="0.45"/>
        <path id="Path_92" data-name="Path 92" d="M1499,1374.138s158.643,30.767,171.139,132.35-68.291,263.72-6.725,366.534,232.8,74.905,232.8,74.905" transform="translate(1482.755 1985.162) rotate(143)" fill="none" stroke="#1e0203" stroke-width="1" stroke-dasharray="5" opacity="0.45"/>
        <path id="Path_91" data-name="Path 91" d="M0,678.435s196.3-36.161,211.764-155.551-84.5-309.95-8.322-430.787S491.5,4.061,491.5,4.061" transform="matrix(0.995, -0.105, 0.105, 0.995, -1086.775, 1422.443)" fill="none" stroke="#c00006" stroke-width="1" stroke-dasharray="5" opacity="0.45"/>
      </g>
    </g>
  </g>
</svg>
